<?xml version="1.0" encoding="utf-8"?>
<!-- Svg Vector Icons : http://www.onlinewebfonts.com/icon -->
<!DOCTYPE svg PUBLIC "-//W3C//DTD SVG 1.1//EN" "http://www.w3.org/Graphics/SVG/1.1/DTD/svg11.dtd">
<svg version="1.1" xmlns="http://www.w3.org/2000/svg" xmlns:xlink="http://www.w3.org/1999/xlink" x="0px" y="0px" viewBox="0 0 1000 1000" enable-background="new 0 0 1000 1000" xml:space="preserve">
<metadata> Svg Vector Icons : http://www.onlinewebfonts.com/icon </metadata>
<g><g><path d="M942.2,57.8C878.5-6,774.9-6,711.2,57.8L500,269L288.8,57.8C225.1-6,121.5-6,57.8,57.8c-63.8,63.8-63.8,167.2,0,231L269,500L57.8,711.2c-63.8,63.8-63.8,167.2,0,231c31.9,31.9,73.7,47.9,115.5,47.9c41.8,0,83.6-15.9,115.5-47.9L500,731l211.2,211.2C743,974.1,784.9,990,826.7,990c41.8,0,83.6-15.9,115.5-47.9c63.8-63.8,63.8-167.2,0-231L731,500l211.1-211.2C1005.9,225,1005.9,121.6,942.2,57.8z"/></g><g></g><g></g><g></g><g></g><g></g><g></g><g></g><g></g><g></g><g></g><g></g><g></g><g></g><g></g><g></g></g>
</svg>