<svg id="Layer_1" data-name="Layer 1" xmlns="http://www.w3.org/2000/svg" viewBox="0 0 359.37 335.51"><defs><style>.cls-1{fill:#fff;}</style></defs><path class="cls-1" d="M71.89,263.58c-12.37,0-24.32.21-36.26-.05-13.51-.29-23.82-6.49-30.81-18A32.69,32.69,0,0,1,.06,228.39Q0,131.82.1,35.24C.15,15.69,16.19.16,36,.07c30.44-.13,60.88,0,91.32,0H320.8c23.51,0,38.56,15.07,38.56,38.61q0,93.94,0,187.9c0,17.46-10.46,31.49-26.78,35.75a46.29,46.29,0,0,1-11.46,1.25c-46.53.08-93.07,0-139.6.15a10.92,10.92,0,0,0-6.33,2.22q-40.16,31.86-80.11,64c-1.17.94-2.33,1.89-3.53,2.79-4,3-8.37,3.81-13,1.49s-6.68-6.18-6.68-11.24q0-27.33,0-54.65Zm24,34.84c1.61-1.22,2.59-1.93,3.54-2.69q32.3-25.83,64.53-51.7a19,19,0,0,1,12.66-4.46q72.78.17,145.57.06c8.38,0,13.26-4.87,13.26-13.24q0-94.51,0-189c0-8.59-4.85-13.38-13.48-13.38Q179.71,24,37.5,24C28.68,24,24,28.77,24,37.7Q24,131.84,24,226c0,8.95,4.67,13.65,13.57,13.66q22.08,0,44.16,0c9.65,0,14.13,4.5,14.13,14.23C95.85,268.45,95.84,283,95.84,298.42Z"/><path class="cls-1" d="M179.62,119.83q-47.34,0-94.69,0c-9.27,0-15.28-7.82-12.3-16C74.38,99.06,78,96.47,83,95.92a31.35,31.35,0,0,1,3.36,0q93.39,0,186.77,0a21.52,21.52,0,0,1,5.9.61,11.81,11.81,0,0,1,8.4,12.62,12.1,12.1,0,0,1-10.87,10.64c-1.24.12-2.49.06-3.74.06Z"/><path class="cls-1" d="M131.77,143.79q23.21,0,46.41,0c8,0,13.42,4.83,13.47,11.88s-5.39,12.06-13.28,12.07H85.18c-7.88,0-13.34-5-13.28-12.08s5.45-11.86,13.46-11.87Q108.57,143.77,131.77,143.79Z"/></svg>