<svg id="Layer_1" data-name="Layer 1" xmlns="http://www.w3.org/2000/svg" viewBox="0 0 256.2 256.12"><defs><style>.cls-1{fill:#f2cf1d;}.cls-2{fill:#ffe161;}</style></defs><title>bell 2</title><path class="cls-1" d="M203.13,129c.52,20.25,9,36.8,23.79,50.25,6,5.46,9.2,11.68,7.23,19.88a17.64,17.64,0,0,1-7.86,11.09c-2.45.62-3.62-1.32-4.95-2.65Q145.92,132.28,70.62,56.88C69.29,55.55,67.32,54.39,68,52c11.15-15.06,26-24.5,44.15-28.75,1.12-.26,2.21-.64,3.32-1,2-2.31.81-5.1,1.15-7.66.23-1.76-.61-3.64.6-5.29,3.65-8.92,10.9-11.8,17.36-7,2.43,1.8,3.27,4.47,4.39,7,1.36,2.49.35,5.17.6,7.74.17,1.79-.3,3.68,1.14,5.17,11.88,2.8,23.14,7,32.82,14.69,16.94,13.48,26.77,30.86,28.83,52.51a26.7,26.7,0,0,0,.61,2.9c1.38,4,.58,8.22.56,12.31C203.47,112.76,204.15,120.91,203.13,129Z"/><path class="cls-1" d="M53.26,91.39c1.23-6.12,1.57-12.42,3.88-18.31,3.65-.41,5.19,2.64,7.19,4.64Q128,141.26,191.6,205c1.77,1.77,3.59,3.49,5.32,5.29,2,2.12,1.53,3.5-1.29,4.06a23.25,23.25,0,0,1-4.49.17H44.69c-2.29,0-4.71.42-6.71-1.25-7.91-1-13.2-5.45-15.61-12.88-2.51-7.73-.32-14.53,5.74-19.85C41.65,168.55,50,153.82,52.65,136c.34-2.28.27-4.63.39-6.95C52.46,116.47,52,104,53.26,91.39Z"/><path class="cls-2" d="M38,213.18c2-.08,4-.22,6-.22H197.69l-4.91-4.88Q127.21,142.5,61.64,77c-1.4-1.4-2.53-3.13-4.5-3.88-.76-1.94-2.45-3.12-3.85-4.52q-23.45-23.52-46.91-47a37.45,37.45,0,0,1-4.52-5.3,9.66,9.66,0,0,1,.83-12.4C6.14,0,10.68-1,15.3,1.1a19.24,19.24,0,0,1,5.45,4.29Q42.29,27,63.83,48.44C65.1,49.72,66.16,51.3,68,52c1,1.27,2,2.63,3.17,3.79q75.66,75.69,151.35,151.35c1.16,1.16,2.52,2.13,3.78,3.18,7.09,8.61,15.6,15.84,23.22,23.93a44.32,44.32,0,0,1,4.84,5.67,9.65,9.65,0,0,1-.89,12.39c-3.47,3.92-8,4.87-12.62,2.71a18.75,18.75,0,0,1-5.09-3.94q-16.72-16.77-33.51-33.5c-1.27-1.26-2.28-2.89-4.15-3.47-1.74,1.39-3.81,1-5.77,1H44c-2,0-4,.5-5.72-1.07A4.68,4.68,0,0,0,38,213.18Z"/><path class="cls-2" d="M128.05,224c11.64,0,23.28.06,34.92,0,3.07,0,4.52.18,3.34,4a40.5,40.5,0,0,1-37.93,28c-17.47.09-33.4-11.62-38.49-28-1.13-3.63,0-4.14,3.24-4.1C104.77,224.12,116.41,224,128.05,224Z"/></svg>