<svg id="Layer_1" data-name="Layer 1" xmlns="http://www.w3.org/2000/svg" viewBox="0 0 256.19 256.11"><defs><style>.cls-1{fill:#ffd100;}.cls-2{fill:#ffe661;}.cls-3{fill:#fff;}.cls-4{fill:#fef8e0;}.cls-5{fill:#fef9e5;}</style></defs><title>no-notification-3315156-2777206 (1)</title><path class="cls-1" d="M203.13,129.06c.52,20.25,9,36.8,23.79,50.25,6,5.46,9.2,11.68,7.23,19.88a17.67,17.67,0,0,1-7.86,11.09c-2.45.62-3.62-1.32-4.95-2.65Q145.92,132.32,70.62,56.91C69.29,55.58,67.32,54.42,68,52c11.15-15.06,26-24.5,44.15-28.75,1.12-.26,2.21-.64,3.32-1,2-2.31.81-5.1,1.15-7.66.23-1.76-.61-3.64.6-5.29,3.65-8.92,10.9-11.8,17.36-7,2.43,1.8,3.27,4.47,4.39,7,1.36,2.49.35,5.17.6,7.74.17,1.79-.3,3.68,1.14,5.17,11.88,2.8,23.14,7,32.82,14.69,16.94,13.48,26.77,30.86,28.83,52.51a24.52,24.52,0,0,0,.61,2.9c1.38,4,.58,8.22.56,12.31C203.47,112.79,204.15,120.94,203.13,129.06Z"/><path class="cls-1" d="M53.26,91.42C54.49,85.3,54.83,79,57.14,73.11c3.65-.41,5.19,2.64,7.19,4.64Q128,141.29,191.6,205c1.77,1.77,3.59,3.49,5.32,5.29,2,2.12,1.53,3.5-1.29,4.06a23.19,23.19,0,0,1-4.49.17q-73.21,0-146.45,0c-2.29,0-4.71.42-6.71-1.25-7.91-1-13.2-5.45-15.61-12.88-2.51-7.73-.32-14.53,5.74-19.85C41.65,168.58,50,153.85,52.65,136c.34-2.28.27-4.63.39-6.95C52.46,116.5,52,104,53.26,91.42Z"/><path class="cls-2" d="M38,213.21c2-.08,4-.22,6-.22H197.69l-4.91-4.88Q127.21,142.53,61.64,77c-1.4-1.4-2.53-3.13-4.5-3.88-.76-1.94-2.45-3.12-3.85-4.52q-23.45-23.51-46.91-47a36.19,36.19,0,0,1-4.52-5.3,9.67,9.67,0,0,1,.83-12.4C6.14,0,10.68-1,15.3,1.13a19.42,19.42,0,0,1,5.45,4.29Q42.28,27,63.83,48.47C65.1,49.75,66.16,51.33,68,52c1.05,1.27,2,2.63,3.17,3.79q75.65,75.69,151.35,151.35c1.16,1.16,2.52,2.13,3.78,3.18,7.09,8.61,15.6,15.84,23.22,23.93a44.78,44.78,0,0,1,4.84,5.67,9.66,9.66,0,0,1-.89,12.39c-3.47,3.92-8,4.87-12.62,2.71a18.6,18.6,0,0,1-5.09-3.94q-16.73-16.77-33.51-33.5c-1.27-1.26-2.28-2.89-4.15-3.47-1.74,1.39-3.81,1-5.77,1q-74.19,0-148.36,0c-2,0-4.05.5-5.72-1.07A4.86,4.86,0,0,0,38,213.21Z"/><path class="cls-2" d="M128.05,224.07c11.64,0,23.28.06,34.92,0,3.07,0,4.52.18,3.34,4a40.5,40.5,0,0,1-37.93,28c-17.47.09-33.4-11.62-38.49-27.95-1.13-3.63,0-4.14,3.24-4.1C104.77,224.15,116.41,224.07,128.05,224.07Z"/><path class="cls-3" d="M53.26,91.42q-.1,18.81-.22,37.63c-.29-.57-.84-1.14-.85-1.72,0-13.71,0-27.43,0-41.8C53.64,87.8,52.78,89.71,53.26,91.42Z"/><path class="cls-3" d="M203.13,129.06Q203,110.7,203,92.34l.27-4.88.86,0v7.67c0,9.6,0,19.19,0,28.79C204.06,125.63,204.66,127.56,203.13,129.06Z"/><path class="cls-4" d="M140.7,22.25c-2.33-.08-1.81-1.87-1.82-3.2,0-3.24.05-6.47.08-9.71.3-.35.64-2.18,1-.38.51,2.55.09,5.28.15,7.93,0,1.72-.57,3.85,2.2,4.2.42.06,1.05.41.33.83A5.72,5.72,0,0,1,140.7,22.25Z"/><path class="cls-5" d="M117.21,9.3c0,3.41.07,6.82.09,10.23,0,1.3.11,2.72-1.85,2.72l-.47-.12c2-4.46.44-9.32,1.53-13.89.12,0,.31.06.35.15A7.13,7.13,0,0,1,117.21,9.3Z"/></svg>