<svg width="173" height="62" viewBox="0 0 173 62" fill="none" xmlns="http://www.w3.org/2000/svg">
<g clip-path="url(#clip0_5401_4213)">
<path d="M64.125 34.7083C64.125 36.5711 63.5678 37.9734 62.4749 38.9152C61.382 39.857 59.839 40.3175 57.8889 40.3175H47.7525V36.9687H58.5318C59.1318 36.9687 59.6461 36.7385 60.0533 36.2781C60.4605 35.8176 60.6534 35.2734 60.6534 34.6246C60.6534 34.0177 60.4605 33.4735 60.0533 33.0131C59.6461 32.5526 59.1533 32.3224 58.5318 32.3224H52.9814C51.8456 32.3224 50.8598 32.1549 50.0884 31.8201C49.2955 31.4852 48.6525 31.0457 48.1811 30.5015C47.6882 29.9573 47.3453 29.3713 47.131 28.7016C46.9167 28.0318 46.8096 27.383 46.8096 26.7342C46.8096 25.9598 46.9167 25.2272 47.1525 24.5366C47.3882 23.8668 47.7525 23.2599 48.2454 22.7366C48.7597 22.2134 49.4026 21.7948 50.1741 21.5018C50.9456 21.2088 51.8885 21.0623 53.0028 21.0623H62.8392V24.4528H52.4457C52.1456 24.4528 51.8456 24.5156 51.5885 24.6412C51.3313 24.7668 51.0956 24.9342 50.8813 25.1226C50.6884 25.3319 50.517 25.5621 50.3884 25.8342C50.2598 26.1063 50.1955 26.3784 50.1955 26.6923C50.1955 27.3202 50.4098 27.8644 50.8598 28.3039C51.2884 28.7434 51.8242 28.9527 52.4671 28.9527H57.9317C59.839 28.9527 61.3391 29.4341 62.4535 30.355C63.5678 31.2968 64.1036 32.6991 64.1036 34.5618V34.7083H64.125Z" fill="white"/>
<path d="M77.5613 21.082C83.4974 21.082 86.4762 24.2633 86.5405 30.6259V30.7096C86.5405 37.1141 83.5617 40.3163 77.5827 40.3163H76.0398C70.0608 40.3163 67.082 37.1141 67.082 30.7096V30.6259C67.1035 24.2633 70.1037 21.082 76.0612 21.082H77.5613ZM75.1826 24.4517C73.6182 24.4517 72.461 24.954 71.6895 25.9586C70.918 26.9632 70.5323 28.5539 70.5323 30.7306C70.5323 34.8746 72.0752 36.9676 75.1611 36.9676H78.4828C81.5687 36.9676 83.1117 34.8956 83.1117 30.7306C83.1117 28.5539 82.7259 26.9632 81.933 25.9586C81.1615 24.954 79.9829 24.4517 78.4399 24.4517H75.1826Z" fill="white"/>
<path d="M96.2055 40.3163H92.7767V24.4516H87.9121V21.061H100.792V24.4516H96.2055V40.3163Z" fill="white"/>
<path d="M116.372 40.3163L110.821 25.0168C110.693 24.661 110.436 24.4936 110.071 24.4936C109.707 24.4936 109.471 24.661 109.321 25.0168L103.771 40.3163H100.106L106.235 23.5517C106.535 22.7145 107.028 22.0867 107.693 21.689C108.357 21.2704 109.15 21.082 110.071 21.082C110.993 21.082 111.786 21.2913 112.45 21.689C113.114 22.1076 113.607 22.7145 113.907 23.5517L120.036 40.3163H116.372Z" fill="white"/>
<path d="M128.629 40.3163H125.201V24.4516H120.336V21.061H133.215V24.4516H128.629V40.3163Z" fill="white"/>
<path d="M151.881 24.4514H141.487C141.187 24.4514 140.887 24.5142 140.63 24.6398C140.373 24.7653 140.137 24.9328 139.923 25.1212C139.73 25.3304 139.559 25.5607 139.43 25.8328C139.302 26.1048 139.237 26.3769 139.237 26.6909C139.237 27.3188 139.452 27.8629 139.859 28.3024C140.287 28.742 140.823 28.9513 141.487 28.9513H151.838V32.3419H141.445C141.145 32.3419 140.845 32.4046 140.587 32.5302C140.33 32.6558 140.094 32.8232 139.88 33.0116C139.687 33.2209 139.516 33.4511 139.387 33.7232C139.259 33.9953 139.194 34.2674 139.194 34.5813C139.194 35.2929 139.409 35.858 139.816 36.3185C140.244 36.758 140.78 36.9882 141.445 36.9882H151.795V40.337H141.959C140.823 40.337 139.837 40.1695 139.066 39.8556C138.273 39.5207 137.63 39.1021 137.137 38.5579C136.644 38.0138 136.301 37.4068 136.087 36.7371C135.873 36.0673 135.766 35.3557 135.766 34.665C135.766 33.8906 135.916 33.1372 136.259 32.4256C136.58 31.714 137.116 31.1279 137.887 30.6884C137.116 30.2489 136.58 29.6629 136.259 28.9303C135.937 28.1978 135.766 27.4862 135.766 26.8164C135.766 26.0002 135.894 25.2467 136.13 24.5351C136.387 23.8444 136.751 23.2375 137.266 22.7352C137.78 22.2329 138.423 21.8352 139.194 21.5631C139.966 21.291 140.909 21.1445 141.959 21.1445H151.795V24.4514H151.881Z" fill="white"/>
<path d="M158.846 40.3162H155.396V21.061H158.846V27.1724L171.897 20.8936V24.7446L158.76 30.6677L171.897 36.7582V40.5046L158.846 34.1629V40.3162Z" fill="white"/>
<path d="M41.9937 16.9172C39.7463 19.8683 36.1393 21.7865 32.079 21.7865C25.2615 21.7865 19.7471 16.4008 19.7471 9.74249C19.7471 6.29345 21.2201 3.19484 23.5996 1L41.9937 16.9172Z" fill="white"/>
<path d="M6.71698 39.0315C3.54429 37.0579 1.33474 33.6827 1.03258 29.7356C0.541564 23.0958 5.65941 17.3228 12.458 16.8617C15.9707 16.6219 19.2567 17.8392 21.6739 19.9787L6.71698 39.0315Z" fill="white"/>
<path d="M8.60449 40.175C10.8329 37.2055 14.4211 35.2873 18.4814 35.2504C25.2989 35.2135 30.8511 40.5808 30.8889 47.2391C30.9077 50.6881 29.4536 53.8052 27.093 56L8.60449 40.175Z" fill="white"/>
<path opacity="0.9" d="M50.792 53.9331H48.7026V53.0898H50.792C51.1966 53.0898 51.5243 53.0254 51.7749 52.8965C52.0256 52.7676 52.2082 52.5885 52.3228 52.3594C52.4409 52.1302 52.5 51.8688 52.5 51.5752C52.5 51.3066 52.4409 51.0542 52.3228 50.8179C52.2082 50.5815 52.0256 50.3918 51.7749 50.2485C51.5243 50.1017 51.1966 50.0283 50.792 50.0283H48.9443V57H47.9077V49.1797H50.792C51.3828 49.1797 51.8823 49.2817 52.2905 49.4858C52.6987 49.6899 53.0085 49.9728 53.2197 50.3345C53.431 50.6925 53.5366 51.1025 53.5366 51.5645C53.5366 52.0658 53.431 52.4937 53.2197 52.8481C53.0085 53.2026 52.6987 53.473 52.2905 53.6592C51.8823 53.8418 51.3828 53.9331 50.792 53.9331ZM54.3584 54.1587V54.0352C54.3584 53.6162 54.4193 53.2277 54.541 52.8696C54.6628 52.508 54.8382 52.1947 55.0674 51.9297C55.2965 51.6611 55.5741 51.4535 55.8999 51.3066C56.2257 51.1562 56.591 51.0811 56.9956 51.0811C57.4038 51.0811 57.7708 51.1562 58.0967 51.3066C58.4261 51.4535 58.7054 51.6611 58.9346 51.9297C59.1673 52.1947 59.3446 52.508 59.4663 52.8696C59.5881 53.2277 59.6489 53.6162 59.6489 54.0352V54.1587C59.6489 54.5776 59.5881 54.9661 59.4663 55.3242C59.3446 55.6823 59.1673 55.9956 58.9346 56.2642C58.7054 56.5291 58.4279 56.7368 58.1021 56.8872C57.7798 57.034 57.4146 57.1074 57.0063 57.1074C56.5981 57.1074 56.2311 57.034 55.9053 56.8872C55.5794 56.7368 55.3001 56.5291 55.0674 56.2642C54.8382 55.9956 54.6628 55.6823 54.541 55.3242C54.4193 54.9661 54.3584 54.5776 54.3584 54.1587ZM55.3521 54.0352V54.1587C55.3521 54.4487 55.3861 54.7227 55.4541 54.9805C55.5221 55.2347 55.6242 55.4603 55.7603 55.6572C55.8999 55.8542 56.0736 56.0099 56.2812 56.1245C56.4889 56.2355 56.7306 56.291 57.0063 56.291C57.2785 56.291 57.5166 56.2355 57.7207 56.1245C57.9284 56.0099 58.1003 55.8542 58.2363 55.6572C58.3724 55.4603 58.4744 55.2347 58.5425 54.9805C58.6141 54.7227 58.6499 54.4487 58.6499 54.1587V54.0352C58.6499 53.7487 58.6141 53.4784 58.5425 53.2241C58.4744 52.9663 58.3706 52.7389 58.231 52.542C58.0949 52.3415 57.923 52.1839 57.7153 52.0693C57.5112 51.9548 57.2713 51.8975 56.9956 51.8975C56.7235 51.8975 56.4836 51.9548 56.2759 52.0693C56.0718 52.1839 55.8999 52.3415 55.7603 52.542C55.6242 52.7389 55.5221 52.9663 55.4541 53.2241C55.3861 53.4784 55.3521 53.7487 55.3521 54.0352ZM62.3667 55.9688L63.8599 51.1885H64.5151L64.3862 52.1392L62.8662 57H62.2271L62.3667 55.9688ZM61.3623 51.1885L62.6353 56.0225L62.7266 57H62.0552L60.3687 51.1885H61.3623ZM65.9438 55.9849L67.1577 51.1885H68.146L66.4595 57H65.7935L65.9438 55.9849ZM64.6602 51.1885L66.1211 55.8882L66.2876 57H65.6538L64.0908 52.1284L63.9619 51.1885H64.6602ZM71.5781 57.1074C71.1735 57.1074 70.8065 57.0394 70.4771 56.9033C70.1512 56.7637 69.8701 56.5685 69.6338 56.3179C69.401 56.0672 69.222 55.77 69.0967 55.4263C68.9714 55.0825 68.9087 54.7065 68.9087 54.2983V54.0728C68.9087 53.6001 68.9785 53.1794 69.1182 52.8105C69.2578 52.4382 69.4476 52.123 69.6875 51.8652C69.9274 51.6074 70.1995 51.4123 70.5039 51.2798C70.8083 51.1473 71.1234 51.0811 71.4492 51.0811C71.8646 51.0811 72.2227 51.1527 72.5234 51.2959C72.8278 51.4391 73.0767 51.6396 73.27 51.8975C73.4634 52.1517 73.6066 52.4525 73.6997 52.7998C73.7928 53.1436 73.8394 53.5195 73.8394 53.9277V54.3735H69.4995V53.5625H72.8457V53.4873C72.8314 53.2295 72.7777 52.9788 72.6846 52.7354C72.5951 52.4919 72.4518 52.2913 72.2549 52.1338C72.0579 51.9762 71.7894 51.8975 71.4492 51.8975C71.2236 51.8975 71.016 51.9458 70.8262 52.0425C70.6364 52.1356 70.4735 52.2752 70.3374 52.4614C70.2013 52.6476 70.0957 52.875 70.0205 53.1436C69.9453 53.4121 69.9077 53.7218 69.9077 54.0728V54.2983C69.9077 54.5741 69.9453 54.8337 70.0205 55.0771C70.0993 55.3171 70.2121 55.5283 70.3589 55.7109C70.5093 55.8936 70.6901 56.0368 70.9014 56.1406C71.1162 56.2445 71.3597 56.2964 71.6318 56.2964C71.9827 56.2964 72.2799 56.2248 72.5234 56.0815C72.7669 55.9383 72.98 55.7467 73.1626 55.5068L73.7642 55.9849C73.6388 56.1746 73.4795 56.3555 73.2861 56.5273C73.0928 56.6992 72.8547 56.8389 72.5718 56.9463C72.2925 57.0537 71.9613 57.1074 71.5781 57.1074ZM75.9932 52.1016V57H74.9995V51.1885H75.9663L75.9932 52.1016ZM77.8086 51.1562L77.8032 52.0801C77.7209 52.0622 77.6421 52.0514 77.5669 52.0479C77.4953 52.0407 77.4129 52.0371 77.3198 52.0371C77.0907 52.0371 76.8883 52.0729 76.7129 52.1445C76.5374 52.2161 76.3888 52.3164 76.2671 52.4453C76.1453 52.5742 76.0487 52.7282 75.9771 52.9072C75.909 53.0827 75.8643 53.276 75.8428 53.4873L75.5635 53.6484C75.5635 53.2975 75.5975 52.9681 75.6655 52.6602C75.7371 52.3522 75.8464 52.0801 75.9932 51.8438C76.14 51.6038 76.3262 51.4176 76.5518 51.2852C76.7809 51.1491 77.0531 51.0811 77.3682 51.0811C77.4398 51.0811 77.5221 51.09 77.6152 51.1079C77.7083 51.1222 77.7728 51.1383 77.8086 51.1562ZM81.0312 57.1074C80.6266 57.1074 80.2596 57.0394 79.9302 56.9033C79.6043 56.7637 79.3232 56.5685 79.0869 56.3179C78.8542 56.0672 78.6751 55.77 78.5498 55.4263C78.4245 55.0825 78.3618 54.7065 78.3618 54.2983V54.0728C78.3618 53.6001 78.4316 53.1794 78.5713 52.8105C78.7109 52.4382 78.9007 52.123 79.1406 51.8652C79.3805 51.6074 79.6527 51.4123 79.957 51.2798C80.2614 51.1473 80.5765 51.0811 80.9023 51.0811C81.3177 51.0811 81.6758 51.1527 81.9766 51.2959C82.2809 51.4391 82.5298 51.6396 82.7231 51.8975C82.9165 52.1517 83.0597 52.4525 83.1528 52.7998C83.2459 53.1436 83.2925 53.5195 83.2925 53.9277V54.3735H78.9526V53.5625H82.2988V53.4873C82.2845 53.2295 82.2308 52.9788 82.1377 52.7354C82.0482 52.4919 81.9049 52.2913 81.708 52.1338C81.5111 51.9762 81.2425 51.8975 80.9023 51.8975C80.6768 51.8975 80.4691 51.9458 80.2793 52.0425C80.0895 52.1356 79.9266 52.2752 79.7905 52.4614C79.6545 52.6476 79.5488 52.875 79.4736 53.1436C79.3984 53.4121 79.3608 53.7218 79.3608 54.0728V54.2983C79.3608 54.5741 79.3984 54.8337 79.4736 55.0771C79.5524 55.3171 79.6652 55.5283 79.812 55.7109C79.9624 55.8936 80.1432 56.0368 80.3545 56.1406C80.5693 56.2445 80.8128 56.2964 81.085 56.2964C81.4359 56.2964 81.7331 56.2248 81.9766 56.0815C82.2201 55.9383 82.4331 55.7467 82.6157 55.5068L83.2173 55.9849C83.092 56.1746 82.9326 56.3555 82.7393 56.5273C82.5459 56.6992 82.3078 56.8389 82.0249 56.9463C81.7456 57.0537 81.4144 57.1074 81.0312 57.1074ZM88.1157 55.8721V48.75H89.1147V57H88.2017L88.1157 55.8721ZM84.2056 54.1587V54.0459C84.2056 53.6019 84.2593 53.1991 84.3667 52.8374C84.4777 52.4722 84.6335 52.1589 84.834 51.8975C85.0381 51.6361 85.2798 51.4355 85.5591 51.2959C85.842 51.1527 86.1571 51.0811 86.5044 51.0811C86.8696 51.0811 87.1883 51.1455 87.4604 51.2744C87.7362 51.3997 87.9689 51.5841 88.1587 51.8276C88.3521 52.0675 88.5042 52.3576 88.6152 52.6978C88.7262 53.0379 88.8032 53.4229 88.8462 53.8525V54.3467C88.8068 54.7728 88.7298 55.1559 88.6152 55.4961C88.5042 55.8363 88.3521 56.1263 88.1587 56.3662C87.9689 56.6061 87.7362 56.7905 87.4604 56.9194C87.1847 57.0448 86.8625 57.1074 86.4937 57.1074C86.1535 57.1074 85.842 57.034 85.5591 56.8872C85.2798 56.7404 85.0381 56.5345 84.834 56.2695C84.6335 56.0046 84.4777 55.693 84.3667 55.335C84.2593 54.9733 84.2056 54.5812 84.2056 54.1587ZM85.2046 54.0459V54.1587C85.2046 54.4487 85.2332 54.7209 85.2905 54.9751C85.3514 55.2293 85.4445 55.4531 85.5698 55.6465C85.6951 55.8398 85.8545 55.992 86.0479 56.103C86.2412 56.2104 86.4722 56.2642 86.7407 56.2642C87.0701 56.2642 87.3405 56.1943 87.5518 56.0547C87.7666 55.915 87.9385 55.7306 88.0674 55.5015C88.1963 55.2723 88.2965 55.0234 88.3682 54.7549V53.4604C88.3252 53.2635 88.2625 53.0737 88.1802 52.8911C88.1014 52.7049 87.9976 52.5402 87.8687 52.397C87.7433 52.2502 87.5876 52.1338 87.4014 52.0479C87.2188 51.9619 87.0021 51.9189 86.7515 51.9189C86.4793 51.9189 86.2448 51.9762 86.0479 52.0908C85.8545 52.2018 85.6951 52.3558 85.5698 52.5527C85.4445 52.7461 85.3514 52.9717 85.2905 53.2295C85.2332 53.4837 85.2046 53.7559 85.2046 54.0459ZM93.3848 48.75H94.3838V55.8721L94.2979 57H93.3848V48.75ZM98.3101 54.0459V54.1587C98.3101 54.5812 98.2599 54.9733 98.1597 55.335C98.0594 55.693 97.9126 56.0046 97.7192 56.2695C97.5259 56.5345 97.2896 56.7404 97.0103 56.8872C96.731 57.034 96.4105 57.1074 96.0488 57.1074C95.68 57.1074 95.356 57.0448 95.0767 56.9194C94.8009 56.7905 94.5682 56.6061 94.3784 56.3662C94.1886 56.1263 94.0365 55.8363 93.9219 55.4961C93.8109 55.1559 93.7339 54.7728 93.6909 54.3467V53.8525C93.7339 53.4229 93.8109 53.0379 93.9219 52.6978C94.0365 52.3576 94.1886 52.0675 94.3784 51.8276C94.5682 51.5841 94.8009 51.3997 95.0767 51.2744C95.3524 51.1455 95.6729 51.0811 96.0381 51.0811C96.4033 51.0811 96.7274 51.1527 97.0103 51.2959C97.2931 51.4355 97.5295 51.6361 97.7192 51.8975C97.9126 52.1589 98.0594 52.4722 98.1597 52.8374C98.2599 53.1991 98.3101 53.6019 98.3101 54.0459ZM97.311 54.1587V54.0459C97.311 53.7559 97.2842 53.4837 97.2305 53.2295C97.1768 52.9717 97.0908 52.7461 96.9727 52.5527C96.8545 52.3558 96.6987 52.2018 96.5054 52.0908C96.312 51.9762 96.0739 51.9189 95.791 51.9189C95.5404 51.9189 95.3219 51.9619 95.1357 52.0479C94.9531 52.1338 94.7974 52.2502 94.6685 52.397C94.5396 52.5402 94.4339 52.7049 94.3516 52.8911C94.2728 53.0737 94.2137 53.2635 94.1743 53.4604V54.7549C94.2316 55.0055 94.3247 55.2472 94.4536 55.48C94.5861 55.7091 94.7616 55.8971 94.98 56.0439C95.202 56.1908 95.4759 56.2642 95.8018 56.2642C96.0703 56.2642 96.2995 56.2104 96.4893 56.103C96.6826 55.992 96.8384 55.8398 96.9565 55.6465C97.0783 55.4531 97.1678 55.2293 97.2251 54.9751C97.2824 54.7209 97.311 54.4487 97.311 54.1587ZM101.135 56.3984L102.752 51.1885H103.815L101.484 57.897C101.431 58.0402 101.359 58.1942 101.27 58.3589C101.184 58.5272 101.073 58.6865 100.937 58.8369C100.8 58.9873 100.636 59.109 100.442 59.2021C100.253 59.2988 100.025 59.3472 99.7603 59.3472C99.6815 59.3472 99.5812 59.3364 99.4595 59.3149C99.3377 59.2935 99.2518 59.2756 99.2017 59.2612L99.1963 58.4556C99.2249 58.4591 99.2697 58.4627 99.3306 58.4663C99.395 58.4735 99.4398 58.4771 99.4648 58.4771C99.6904 58.4771 99.882 58.4466 100.04 58.3857C100.197 58.3285 100.33 58.23 100.437 58.0903C100.548 57.9543 100.643 57.7663 100.722 57.5264L101.135 56.3984ZM99.9482 51.1885L101.458 55.7002L101.715 56.7476L101.001 57.1128L98.8633 51.1885H99.9482ZM112.312 54.5132H113.344C113.29 55.0073 113.149 55.4495 112.919 55.8398C112.69 56.2301 112.366 56.5399 111.947 56.769C111.528 56.9946 111.006 57.1074 110.379 57.1074C109.921 57.1074 109.503 57.0215 109.127 56.8496C108.755 56.6777 108.435 56.4342 108.166 56.1191C107.897 55.8005 107.69 55.4191 107.543 54.9751C107.4 54.5275 107.328 54.0298 107.328 53.4819V52.7031C107.328 52.1553 107.4 51.6593 107.543 51.2153C107.69 50.7677 107.899 50.3846 108.171 50.0659C108.447 49.7472 108.778 49.502 109.165 49.3301C109.552 49.1582 109.987 49.0723 110.47 49.0723C111.061 49.0723 111.561 49.1833 111.969 49.4053C112.377 49.6273 112.694 49.9352 112.919 50.3291C113.149 50.7194 113.29 51.1724 113.344 51.688H112.312C112.262 51.3228 112.169 51.0094 112.033 50.748C111.897 50.4831 111.704 50.279 111.453 50.1357C111.202 49.9925 110.875 49.9209 110.47 49.9209C110.123 49.9209 109.817 49.9871 109.552 50.1196C109.29 50.2521 109.07 50.4401 108.891 50.6836C108.716 50.9271 108.583 51.2189 108.494 51.5591C108.404 51.8993 108.359 52.277 108.359 52.6924V53.4819C108.359 53.8651 108.399 54.2249 108.478 54.5615C108.56 54.8981 108.683 55.1935 108.848 55.4478C109.013 55.702 109.222 55.9025 109.477 56.0493C109.731 56.1925 110.032 56.2642 110.379 56.2642C110.819 56.2642 111.17 56.1943 111.432 56.0547C111.693 55.915 111.89 55.7145 112.022 55.4531C112.159 55.1917 112.255 54.8784 112.312 54.5132ZM118.033 56.0063V53.0146C118.033 52.7855 117.986 52.5868 117.893 52.4185C117.804 52.2466 117.667 52.1141 117.485 52.021C117.302 51.9279 117.077 51.8813 116.808 51.8813C116.557 51.8813 116.337 51.9243 116.147 52.0103C115.961 52.0962 115.814 52.209 115.707 52.3486C115.603 52.4883 115.551 52.6387 115.551 52.7998H114.558C114.558 52.5921 114.611 52.3862 114.719 52.1821C114.826 51.978 114.98 51.7936 115.181 51.6289C115.385 51.4606 115.628 51.3281 115.911 51.2314C116.198 51.1312 116.516 51.0811 116.867 51.0811C117.29 51.0811 117.662 51.1527 117.984 51.2959C118.31 51.4391 118.564 51.6558 118.747 51.9458C118.933 52.2323 119.026 52.5921 119.026 53.0254V55.7324C119.026 55.9258 119.042 56.1317 119.075 56.3501C119.111 56.5685 119.162 56.7565 119.23 56.9141V57H118.194C118.144 56.8854 118.104 56.7332 118.076 56.5435C118.047 56.3501 118.033 56.1711 118.033 56.0063ZM118.205 53.4766L118.215 54.1748H117.211C116.928 54.1748 116.676 54.1981 116.454 54.2446C116.232 54.2876 116.045 54.3538 115.895 54.4434C115.745 54.5329 115.63 54.6457 115.551 54.7817C115.472 54.9142 115.433 55.07 115.433 55.249C115.433 55.4316 115.474 55.5981 115.557 55.7485C115.639 55.8989 115.763 56.0189 115.927 56.1084C116.096 56.1943 116.301 56.2373 116.545 56.2373C116.849 56.2373 117.118 56.1729 117.351 56.0439C117.583 55.915 117.768 55.7575 117.904 55.5713C118.043 55.3851 118.119 55.2043 118.129 55.0288L118.554 55.5068C118.529 55.6572 118.461 55.8237 118.35 56.0063C118.239 56.189 118.09 56.3644 117.904 56.5327C117.721 56.6974 117.503 56.8353 117.249 56.9463C116.998 57.0537 116.715 57.1074 116.4 57.1074C116.006 57.1074 115.66 57.0304 115.363 56.8765C115.07 56.7225 114.84 56.5166 114.676 56.2588C114.515 55.9974 114.434 55.7056 114.434 55.3833C114.434 55.0718 114.495 54.7979 114.617 54.5615C114.738 54.3216 114.914 54.1229 115.143 53.9653C115.372 53.8042 115.648 53.6825 115.97 53.6001C116.292 53.5177 116.652 53.4766 117.05 53.4766H118.205ZM121.583 52.1016V57H120.589V51.1885H121.556L121.583 52.1016ZM123.398 51.1562L123.393 52.0801C123.311 52.0622 123.232 52.0514 123.157 52.0479C123.085 52.0407 123.003 52.0371 122.91 52.0371C122.681 52.0371 122.478 52.0729 122.303 52.1445C122.127 52.2161 121.979 52.3164 121.857 52.4453C121.735 52.5742 121.639 52.7282 121.567 52.9072C121.499 53.0827 121.454 53.276 121.433 53.4873L121.153 53.6484C121.153 53.2975 121.187 52.9681 121.255 52.6602C121.327 52.3522 121.436 52.0801 121.583 51.8438C121.73 51.6038 121.916 51.4176 122.142 51.2852C122.371 51.1491 122.643 51.0811 122.958 51.0811C123.03 51.0811 123.112 51.09 123.205 51.1079C123.298 51.1222 123.363 51.1383 123.398 51.1562ZM127.019 51.1885V51.9512H123.876V51.1885H127.019ZM124.94 49.7759H125.934V55.5605C125.934 55.7575 125.964 55.9061 126.025 56.0063C126.086 56.1066 126.165 56.1729 126.261 56.2051C126.358 56.2373 126.462 56.2534 126.573 56.2534C126.655 56.2534 126.741 56.2463 126.831 56.2319C126.924 56.214 126.993 56.1997 127.04 56.189L127.045 57C126.967 57.0251 126.863 57.0483 126.734 57.0698C126.609 57.0949 126.456 57.1074 126.277 57.1074C126.034 57.1074 125.81 57.0591 125.606 56.9624C125.402 56.8657 125.239 56.7046 125.117 56.479C124.999 56.2498 124.94 55.9419 124.94 55.5552V49.7759ZM130.596 57.1074C130.191 57.1074 129.824 57.0394 129.495 56.9033C129.169 56.7637 128.888 56.5685 128.651 56.3179C128.419 56.0672 128.24 55.77 128.114 55.4263C127.989 55.0825 127.926 54.7065 127.926 54.2983V54.0728C127.926 53.6001 127.996 53.1794 128.136 52.8105C128.275 52.4382 128.465 52.123 128.705 51.8652C128.945 51.6074 129.217 51.4123 129.521 51.2798C129.826 51.1473 130.141 51.0811 130.467 51.0811C130.882 51.0811 131.24 51.1527 131.541 51.2959C131.845 51.4391 132.094 51.6396 132.288 51.8975C132.481 52.1517 132.624 52.4525 132.717 52.7998C132.81 53.1436 132.857 53.5195 132.857 53.9277V54.3735H128.517V53.5625H131.863V53.4873C131.849 53.2295 131.795 52.9788 131.702 52.7354C131.613 52.4919 131.469 52.2913 131.272 52.1338C131.076 51.9762 130.807 51.8975 130.467 51.8975C130.241 51.8975 130.034 51.9458 129.844 52.0425C129.654 52.1356 129.491 52.2752 129.355 52.4614C129.219 52.6476 129.113 52.875 129.038 53.1436C128.963 53.4121 128.925 53.7218 128.925 54.0728V54.2983C128.925 54.5741 128.963 54.8337 129.038 55.0771C129.117 55.3171 129.23 55.5283 129.376 55.7109C129.527 55.8936 129.708 56.0368 129.919 56.1406C130.134 56.2445 130.377 56.2964 130.649 56.2964C131 56.2964 131.298 56.2248 131.541 56.0815C131.785 55.9383 131.998 55.7467 132.18 55.5068L132.782 55.9849C132.656 56.1746 132.497 56.3555 132.304 56.5273C132.11 56.6992 131.872 56.8389 131.589 56.9463C131.31 57.0537 130.979 57.1074 130.596 57.1074ZM137.401 55.4585C137.401 55.3153 137.369 55.1828 137.304 55.061C137.243 54.9357 137.116 54.8229 136.923 54.7227C136.733 54.6188 136.447 54.5293 136.063 54.4541C135.741 54.3861 135.449 54.3055 135.188 54.2124C134.93 54.1193 134.71 54.0065 134.527 53.874C134.348 53.7415 134.21 53.5858 134.114 53.4067C134.017 53.2277 133.969 53.0182 133.969 52.7783C133.969 52.5492 134.019 52.3325 134.119 52.1284C134.223 51.9243 134.368 51.7435 134.554 51.5859C134.744 51.4284 134.971 51.3049 135.236 51.2153C135.501 51.1258 135.797 51.0811 136.123 51.0811C136.588 51.0811 136.986 51.1634 137.315 51.3281C137.644 51.4928 137.897 51.7131 138.072 51.9888C138.248 52.2609 138.335 52.5635 138.335 52.8965H137.342C137.342 52.7354 137.293 52.5796 137.197 52.4292C137.104 52.2752 136.966 52.1481 136.783 52.0479C136.604 51.9476 136.384 51.8975 136.123 51.8975C135.847 51.8975 135.623 51.9404 135.451 52.0264C135.283 52.1087 135.159 52.2144 135.081 52.3433C135.005 52.4722 134.968 52.6082 134.968 52.7515C134.968 52.8589 134.986 52.9556 135.021 53.0415C135.061 53.1239 135.129 53.2008 135.226 53.2725C135.322 53.3405 135.458 53.4049 135.634 53.4658C135.809 53.5267 136.033 53.5876 136.305 53.6484C136.781 53.7559 137.174 53.8848 137.481 54.0352C137.789 54.1855 138.019 54.37 138.169 54.5884C138.319 54.8068 138.395 55.0718 138.395 55.3833C138.395 55.6375 138.341 55.8703 138.233 56.0815C138.13 56.2928 137.977 56.4754 137.777 56.6294C137.58 56.7798 137.344 56.8979 137.068 56.9839C136.796 57.0662 136.49 57.1074 136.149 57.1074C135.637 57.1074 135.204 57.0161 134.85 56.8335C134.495 56.6509 134.227 56.4146 134.044 56.1245C133.861 55.8345 133.77 55.5283 133.77 55.2061H134.769C134.783 55.4782 134.862 55.6948 135.005 55.856C135.149 56.0135 135.324 56.1263 135.532 56.1943C135.739 56.2588 135.945 56.291 136.149 56.291C136.422 56.291 136.649 56.2552 136.832 56.1836C137.018 56.112 137.159 56.0135 137.256 55.8882C137.353 55.7629 137.401 55.6196 137.401 55.4585ZM140.779 51.1885V57H139.78V51.1885H140.779ZM139.705 49.647C139.705 49.4858 139.753 49.3498 139.85 49.2388C139.95 49.1278 140.097 49.0723 140.291 49.0723C140.48 49.0723 140.625 49.1278 140.726 49.2388C140.829 49.3498 140.881 49.4858 140.881 49.647C140.881 49.8009 140.829 49.9334 140.726 50.0444C140.625 50.1519 140.48 50.2056 140.291 50.2056C140.097 50.2056 139.95 50.1519 139.85 50.0444C139.753 49.9334 139.705 49.8009 139.705 49.647Z" fill="white"/>
</g>
<defs>
<clipPath id="clip0_5401_4213">
<rect width="173" height="62" fill="white"/>
</clipPath>
</defs>
</svg>
