<svg width="137" height="44" viewBox="0 0 137 44" fill="none" xmlns="http://www.w3.org/2000/svg">
<g clip-path="url(#clip0_5385_4213)">
<path d="M50.6036 27.0224C50.6036 28.5157 50.157 29.6399 49.2808 30.3949C48.4047 31.1499 47.1678 31.519 45.6044 31.519H37.4786V28.8345H46.1198C46.6008 28.8345 47.0131 28.6499 47.3395 28.2808C47.6659 27.9117 47.8206 27.4755 47.8206 26.9553C47.8206 26.4688 47.6659 26.0325 47.3395 25.6634C47.0131 25.2943 46.618 25.1097 46.1198 25.1097H41.6703C40.7598 25.1097 39.9696 24.9755 39.3511 24.707C38.7155 24.4386 38.2001 24.0862 37.8221 23.65C37.427 23.2138 37.1521 22.744 36.9803 22.2071C36.8086 21.6702 36.7227 21.15 36.7227 20.6299C36.7227 20.0091 36.8086 19.4219 36.9975 18.8682C37.1865 18.3313 37.4786 17.8447 37.8737 17.4253C38.286 17.0058 38.8014 16.6702 39.4198 16.4354C40.0383 16.2005 40.7942 16.083 41.6875 16.083H49.5729V18.8011H41.2408C41.0003 18.8011 40.7598 18.8514 40.5537 18.9521C40.3475 19.0528 40.1585 19.187 39.9867 19.338C39.8321 19.5058 39.6947 19.6903 39.5916 19.9085C39.4885 20.1266 39.437 20.3447 39.437 20.5964C39.437 21.0997 39.6088 21.5359 39.9696 21.8883C40.3132 22.2406 40.7426 22.4084 41.258 22.4084H45.6388C47.1677 22.4084 48.3703 22.7943 49.2636 23.5326C50.157 24.2876 50.5865 25.4117 50.5865 26.905V27.0224H50.6036Z" fill="white"/>
<path d="M61.3744 16.0986C66.1331 16.0986 68.521 18.6489 68.5726 23.7495V23.8166C68.5726 28.9508 66.1846 31.5179 61.3916 31.5179H60.1546C55.3616 31.5179 52.9736 28.9508 52.9736 23.8166V23.7495C52.9908 18.6489 55.3959 16.0986 60.1718 16.0986H61.3744ZM59.4675 18.7999C58.2134 18.7999 57.2857 19.2026 56.6672 20.008C56.0488 20.8133 55.7395 22.0885 55.7395 23.8334C55.7395 27.1555 56.9764 28.8333 59.4503 28.8333H62.1131C64.5869 28.8333 65.8238 27.1723 65.8238 23.8334C65.8238 22.0885 65.5146 20.8133 64.879 20.008C64.2605 19.2026 63.3156 18.7999 62.0787 18.7999H59.4675Z" fill="white"/>
<path d="M76.3213 31.518H73.5726V18.8001H69.6729V16.082H79.9977V18.8001H76.3213V31.518Z" fill="white"/>
<path d="M92.4874 31.5179L88.0379 19.2529C87.9349 18.9677 87.7287 18.8335 87.4367 18.8335C87.1446 18.8335 86.9556 18.9677 86.8354 19.2529L82.3859 31.5179H79.4482L84.3616 18.0785C84.6021 17.4073 84.9972 16.904 85.5298 16.5852C86.0623 16.2496 86.698 16.0986 87.4367 16.0986C88.1754 16.0986 88.811 16.2664 89.3436 16.5852C89.8761 16.9208 90.2713 17.4073 90.5118 18.0785L95.4251 31.5179H92.4874Z" fill="white"/>
<path d="M102.313 31.518H99.5648V18.8001H95.665V16.082H105.99V18.8001H102.313V31.518Z" fill="white"/>
<path d="M120.953 18.7999H112.621C112.381 18.7999 112.14 18.8502 111.934 18.9509C111.728 19.0516 111.539 19.1858 111.367 19.3368C111.212 19.5046 111.075 19.6891 110.972 19.9073C110.869 20.1254 110.817 20.3435 110.817 20.5952C110.817 21.0985 110.989 21.5347 111.315 21.8871C111.659 22.2394 112.089 22.4072 112.621 22.4072H120.919V25.1253H112.587C112.346 25.1253 112.106 25.1756 111.9 25.2763C111.693 25.377 111.504 25.5112 111.333 25.6622C111.178 25.83 111.041 26.0145 110.937 26.2327C110.834 26.4508 110.783 26.6689 110.783 26.9206C110.783 27.491 110.955 27.944 111.281 28.3132C111.625 28.6655 112.054 28.8501 112.587 28.8501H120.884V31.5346H112.999C112.089 31.5346 111.298 31.4004 110.68 31.1487C110.044 30.8802 109.529 30.5447 109.134 30.1084C108.739 29.6722 108.464 29.1856 108.292 28.6487C108.12 28.1118 108.034 27.5414 108.034 26.9877C108.034 26.3669 108.154 25.7629 108.429 25.1924C108.687 24.6219 109.116 24.1522 109.735 23.7998C109.116 23.4475 108.687 22.9777 108.429 22.3904C108.172 21.8032 108.034 21.2327 108.034 20.6958C108.034 20.0415 108.137 19.4375 108.326 18.867C108.532 18.3133 108.824 17.8268 109.237 17.4241C109.649 17.0214 110.164 16.7026 110.783 16.4845C111.401 16.2664 112.157 16.1489 112.999 16.1489H120.884V18.7999H120.953Z" fill="white"/>
<path d="M126.537 31.518H123.771V16.082H126.537V20.9812L137 15.9478V19.035L126.469 23.7832L137 28.6657V31.669L126.537 26.5852V31.518Z" fill="white"/>
<path d="M32.8633 12.7601C31.0618 15.1258 28.1702 16.6635 24.9152 16.6635C19.45 16.6635 15.0293 12.3461 15.0293 7.00844C15.0293 4.24351 16.2102 1.7595 18.1177 0L32.8633 12.7601Z" fill="white"/>
<path d="M4.58303 30.4883C2.03964 28.9062 0.268342 26.2005 0.0261141 23.0363C-0.367507 17.7134 3.73523 13.0855 9.18537 12.7159C12.0013 12.5236 14.6355 13.4995 16.5733 15.2147L4.58303 30.4883Z" fill="white"/>
<path d="M6.09668 31.4045C7.88311 29.024 10.7596 27.4863 14.0145 27.4567C19.4798 27.4271 23.9307 31.7298 23.961 37.0674C23.9761 39.8324 22.8104 42.3312 20.918 44.0907L6.09668 31.4045Z" fill="white"/>
</g>
<defs>
<clipPath id="clip0_5385_4213">
<rect width="137" height="44" fill="white"/>
</clipPath>
</defs>
</svg>
