<svg id="Layer_1" data-name="Layer 1" xmlns="http://www.w3.org/2000/svg" viewBox="0 0 256.04 255.97"><defs><style>.cls-1{fill:#7ac912;}.cls-2{fill:#96d454;}</style></defs><title>Bell</title><path class="cls-1" d="M96.06,21.92c0-3.76-.12-7.41,0-11.05C96.33,4.53,100.93,0,106.82,0s10,4.39,10.44,10.57a25.28,25.28,0,0,1-3.78,15.49c-32.92,55.94,5.14,124.85,69,128.38,3.89.21,5.49,1.83,7.55,4.85a154.6,154.6,0,0,0,15.65,19.89c6.78,7.12,9.39,14.17,6.42,22s-9.51,12-19.34,12q-86,0-172,0c-9.86,0-16.49-4.07-19.51-11.82s-.8-15.37,6.38-21.91c16.18-14.71,24.22-33,24.38-54.87.1-13-.57-26.09,1-38.92,3.75-31.35,28-56.61,58.85-62.79C93.18,22.67,94.45,22.31,96.06,21.92Z"/><path class="cls-1" d="M256,69.57c-.11,38.11-31.59,69.39-69.58,69.15-38.16-.24-69.32-31.64-69.13-69.67A69.36,69.36,0,0,1,256,69.57Zm-81.11,6.06c-3.39-3.79-6.38-7.57-9.82-10.89-4.69-4.54-11-4.48-15.19-.26s-4.25,10.57.19,15.2c6,6.24,12.11,12.38,18.37,18.35,4.84,4.61,10.87,4.38,15.53-.41,2.67-2.74,5.08-5.73,7.59-8.62q13.25-15.28,26.49-30.57c3.12-3.58,4.14-7.59,2.27-12-1.62-3.83-4.82-6.68-8.82-6.14A17.44,17.44,0,0,0,201.76,45C192.79,54.6,184.39,64.72,174.93,75.63Z"/><path class="cls-2" d="M68.16,224.25h77.23C142.89,242.3,125,256.42,105.48,256,87.25,255.53,69.57,240.62,68.16,224.25Z"/></svg>