<svg id="Layer_1" data-name="Layer 1" xmlns="http://www.w3.org/2000/svg" viewBox="0 0 257.05 256.98"><defs><style>.cls-1{fill:#ff4528;}.cls-2{fill:#ff8978;}.cls-3{fill:#fff;}</style></defs><title>Bell</title><path class="cls-1" d="M96.07,22.88c0-3.79-.13-7.45,0-11.1C96.36,5.47,101,.92,106.92,1s9.9,4.44,10.36,10.65a25.37,25.37,0,0,1-3.83,15.48C80.61,83.07,118.63,152,182.6,155.5c3.58.2,5.24,1.53,7.27,4.46a174.35,174.35,0,0,0,17,21.33c9,9.43,8.48,23.66-2.32,30a22.53,22.53,0,0,1-10.86,2.85q-87,.26-174,.1c-9,0-15.58-4.4-18.45-11.89S.39,187.09,7,181.14c17-15.24,25.2-34.26,25.08-57.09-.06-12.48-.55-25.08.94-37.42C36.82,55.35,61,30.16,92,23.92,93.27,23.66,94.53,23.28,96.07,22.88Z"/><path class="cls-2" d="M145.41,225.24C142.75,243.59,124.69,257.65,105,257c-18-.63-35.5-15.63-36.77-31.71Z"/><path d="M256.05,70.45c-.06,38.13-31.44,69.42-69.46,69.28s-69.34-31.49-69.25-69.55a69.36,69.36,0,0,1,138.71.27Zm-80-10.7H163.68c-9.31,0-14.44,3.88-14.3,10.75S154.53,81,163.5,81h12a5.81,5.81,0,0,1,.45,1.12c0,4.49.06,9,.13,13.47.11,7.19,4.32,12,10.53,12.09s10.55-4.73,10.68-11.87c.09-4.78,0-9.56,0-14.81,5.2,0,9.82,0,14.44,0,7.47-.07,12.38-4.4,12.3-10.78S219.29,59.88,212,59.77c-4.75-.07-9.5,0-14.64,0,0-5,0-9.09,0-13.23,0-8.59-3.84-13.44-10.53-13.49s-10.7,5-10.72,13.35C176,50.66,176.05,54.94,176.05,59.75Z"/><circle class="cls-1" cx="187.05" cy="70" r="70"/><path class="cls-3" d="M201.75,70.41c3.4-3.4,6.44-6.42,9.46-9.45,5.9-5.94,6.59-12.35,1.85-17s-10.88-4-17,2.09c-2.93,2.91-5.85,5.85-9.35,9.36-3.64-3.64-7-7-10.37-10.35-5.26-5.1-11.44-5.51-15.92-1.15s-4.16,11,1.08,16.32c3.23,3.3,6.52,6.54,10.2,10.22-3.71,3.71-7.14,7-10.46,10.48C156.3,86,156,92.55,160.42,96.85s10.83,3.9,16-1.11c3.22-3.12,6.41-6.29,9.62-9.43a6.87,6.87,0,0,1,1.11-.47l8.46,8.47c6.36,6.34,12.54,7.25,17.42,2.56s4.06-11.11-2.52-17.71C207.71,76.36,204.92,73.57,201.75,70.41Z"/></svg>